<mxfile host="app.diagrams.net" modified="2023-10-18T14:43:57.427Z" agent="Mozilla/5.0 (Windows NT 10.0; Win64; x64) AppleWebKit/537.36 (KHTML, like Gecko) Chrome/118.0.0.0 Safari/537.36" etag="PYOez_Gr6RuCsPNkTUJC" version="22.0.4" type="github">
  <diagram name="Página-1" id="MWD8I56NZCnHh7SRsxEs">
    <mxGraphModel dx="1793" dy="988" grid="1" gridSize="10" guides="1" tooltips="1" connect="1" arrows="1" fold="1" page="1" pageScale="1" pageWidth="827" pageHeight="1169" math="0" shadow="0">
      <root>
        <mxCell id="0" />
        <mxCell id="1" parent="0" />
        <mxCell id="o0mA_l74HgghlNNjV9-p-1" value="Semáforo 1" style="swimlane;horizontal=0;whiteSpace=wrap;html=1;" parent="1" vertex="1">
          <mxGeometry x="120" y="60" width="1320" height="200" as="geometry">
            <mxRectangle x="120" y="60" width="40" height="150" as="alternateBounds" />
          </mxGeometry>
        </mxCell>
        <mxCell id="o0mA_l74HgghlNNjV9-p-6" value="" style="edgeStyle=orthogonalEdgeStyle;rounded=0;orthogonalLoop=1;jettySize=auto;html=1;" parent="o0mA_l74HgghlNNjV9-p-1" source="o0mA_l74HgghlNNjV9-p-4" target="o0mA_l74HgghlNNjV9-p-5" edge="1">
          <mxGeometry relative="1" as="geometry" />
        </mxCell>
        <mxCell id="o0mA_l74HgghlNNjV9-p-4" value="iniciar" style="ellipse;whiteSpace=wrap;html=1;aspect=fixed;" parent="o0mA_l74HgghlNNjV9-p-1" vertex="1">
          <mxGeometry x="60" y="80" width="40" height="40" as="geometry" />
        </mxCell>
        <mxCell id="o0mA_l74HgghlNNjV9-p-10" value="" style="edgeStyle=orthogonalEdgeStyle;rounded=0;orthogonalLoop=1;jettySize=auto;html=1;" parent="o0mA_l74HgghlNNjV9-p-1" source="o0mA_l74HgghlNNjV9-p-5" target="o0mA_l74HgghlNNjV9-p-9" edge="1">
          <mxGeometry relative="1" as="geometry" />
        </mxCell>
        <mxCell id="o0mA_l74HgghlNNjV9-p-5" value="Acender luz verde" style="rounded=1;whiteSpace=wrap;html=1;fillColor=#d5e8d4;strokeColor=#82b366;" parent="o0mA_l74HgghlNNjV9-p-1" vertex="1">
          <mxGeometry x="140" y="70" width="120" height="60" as="geometry" />
        </mxCell>
        <mxCell id="o0mA_l74HgghlNNjV9-p-13" value="" style="edgeStyle=orthogonalEdgeStyle;rounded=0;orthogonalLoop=1;jettySize=auto;html=1;" parent="o0mA_l74HgghlNNjV9-p-1" source="o0mA_l74HgghlNNjV9-p-9" target="o0mA_l74HgghlNNjV9-p-12" edge="1">
          <mxGeometry relative="1" as="geometry" />
        </mxCell>
        <mxCell id="o0mA_l74HgghlNNjV9-p-9" value="" style="ellipse;whiteSpace=wrap;html=1;aspect=fixed;" parent="o0mA_l74HgghlNNjV9-p-1" vertex="1">
          <mxGeometry x="300" y="80" width="40" height="40" as="geometry" />
        </mxCell>
        <mxCell id="o0mA_l74HgghlNNjV9-p-11" value="Aguardar 1,5 segundos" style="text;html=1;strokeColor=none;fillColor=none;align=center;verticalAlign=middle;whiteSpace=wrap;rounded=0;" parent="o0mA_l74HgghlNNjV9-p-1" vertex="1">
          <mxGeometry x="275" y="130" width="90" height="30" as="geometry" />
        </mxCell>
        <mxCell id="o0mA_l74HgghlNNjV9-p-16" value="" style="edgeStyle=orthogonalEdgeStyle;rounded=0;orthogonalLoop=1;jettySize=auto;html=1;entryX=0;entryY=0.5;entryDx=0;entryDy=0;" parent="o0mA_l74HgghlNNjV9-p-1" source="o0mA_l74HgghlNNjV9-p-12" target="o0mA_l74HgghlNNjV9-p-14" edge="1">
          <mxGeometry relative="1" as="geometry" />
        </mxCell>
        <mxCell id="o0mA_l74HgghlNNjV9-p-12" value="Acender luz amarela" style="rounded=1;whiteSpace=wrap;html=1;fillColor=#fff2cc;strokeColor=#d6b656;" parent="o0mA_l74HgghlNNjV9-p-1" vertex="1">
          <mxGeometry x="380" y="70" width="120" height="60" as="geometry" />
        </mxCell>
        <mxCell id="o0mA_l74HgghlNNjV9-p-19" value="" style="edgeStyle=orthogonalEdgeStyle;rounded=0;orthogonalLoop=1;jettySize=auto;html=1;" parent="o0mA_l74HgghlNNjV9-p-1" source="o0mA_l74HgghlNNjV9-p-14" target="o0mA_l74HgghlNNjV9-p-18" edge="1">
          <mxGeometry relative="1" as="geometry" />
        </mxCell>
        <mxCell id="o0mA_l74HgghlNNjV9-p-14" value="" style="ellipse;whiteSpace=wrap;html=1;aspect=fixed;" parent="o0mA_l74HgghlNNjV9-p-1" vertex="1">
          <mxGeometry x="540" y="80" width="40" height="40" as="geometry" />
        </mxCell>
        <mxCell id="o0mA_l74HgghlNNjV9-p-15" value="Aguardar 1,5 segundos" style="text;html=1;strokeColor=none;fillColor=none;align=center;verticalAlign=middle;whiteSpace=wrap;rounded=0;" parent="o0mA_l74HgghlNNjV9-p-1" vertex="1">
          <mxGeometry x="515" y="130" width="90" height="30" as="geometry" />
        </mxCell>
        <mxCell id="o0mA_l74HgghlNNjV9-p-22" value="" style="edgeStyle=orthogonalEdgeStyle;rounded=0;orthogonalLoop=1;jettySize=auto;html=1;entryX=0;entryY=0.5;entryDx=0;entryDy=0;" parent="o0mA_l74HgghlNNjV9-p-1" source="o0mA_l74HgghlNNjV9-p-18" target="o0mA_l74HgghlNNjV9-p-20" edge="1">
          <mxGeometry relative="1" as="geometry" />
        </mxCell>
        <mxCell id="o0mA_l74HgghlNNjV9-p-18" value="Acender luz vermelha" style="rounded=1;whiteSpace=wrap;html=1;fillColor=#f8cecc;strokeColor=#b85450;" parent="o0mA_l74HgghlNNjV9-p-1" vertex="1">
          <mxGeometry x="622" y="70" width="120" height="60" as="geometry" />
        </mxCell>
        <mxCell id="o0mA_l74HgghlNNjV9-p-20" value="" style="ellipse;whiteSpace=wrap;html=1;aspect=fixed;" parent="o0mA_l74HgghlNNjV9-p-1" vertex="1">
          <mxGeometry x="940" y="80" width="40" height="40" as="geometry" />
        </mxCell>
        <mxCell id="o0mA_l74HgghlNNjV9-p-21" value="Aguardar 3 segundos" style="text;html=1;strokeColor=none;fillColor=none;align=center;verticalAlign=middle;whiteSpace=wrap;rounded=0;" parent="o0mA_l74HgghlNNjV9-p-1" vertex="1">
          <mxGeometry x="915" y="130" width="90" height="30" as="geometry" />
        </mxCell>
        <mxCell id="o0mA_l74HgghlNNjV9-p-69" value="" style="endArrow=classic;html=1;rounded=0;entryX=0.5;entryY=0;entryDx=0;entryDy=0;" parent="o0mA_l74HgghlNNjV9-p-1" target="o0mA_l74HgghlNNjV9-p-5" edge="1">
          <mxGeometry width="50" height="50" relative="1" as="geometry">
            <mxPoint x="980" y="100" as="sourcePoint" />
            <mxPoint x="940" y="30" as="targetPoint" />
            <Array as="points">
              <mxPoint x="1120" y="100" />
              <mxPoint x="1120" y="30" />
              <mxPoint x="200" y="30" />
            </Array>
          </mxGeometry>
        </mxCell>
        <mxCell id="Vqlj5k4cRlmUUN7bnfZ7-2" value="Quando:&lt;br&gt;|" style="text;html=1;strokeColor=none;fillColor=none;align=center;verticalAlign=middle;whiteSpace=wrap;rounded=0;" vertex="1" parent="o0mA_l74HgghlNNjV9-p-1">
          <mxGeometry x="622" y="40" width="60" height="30" as="geometry" />
        </mxCell>
        <mxCell id="o0mA_l74HgghlNNjV9-p-2" value="&lt;b&gt;Semáforo 2&lt;/b&gt;" style="swimlane;horizontal=0;whiteSpace=wrap;html=1;fontStyle=0;startSize=23;" parent="1" vertex="1">
          <mxGeometry x="120" y="260" width="1320" height="200" as="geometry" />
        </mxCell>
        <mxCell id="o0mA_l74HgghlNNjV9-p-42" value="iniciar" style="ellipse;whiteSpace=wrap;html=1;aspect=fixed;" parent="o0mA_l74HgghlNNjV9-p-2" vertex="1">
          <mxGeometry x="60" y="80" width="40" height="40" as="geometry" />
        </mxCell>
        <mxCell id="o0mA_l74HgghlNNjV9-p-54" value="" style="edgeStyle=orthogonalEdgeStyle;rounded=0;orthogonalLoop=1;jettySize=auto;html=1;entryX=0;entryY=0.5;entryDx=0;entryDy=0;" parent="o0mA_l74HgghlNNjV9-p-2" source="o0mA_l74HgghlNNjV9-p-43" target="o0mA_l74HgghlNNjV9-p-44" edge="1">
          <mxGeometry relative="1" as="geometry">
            <mxPoint x="399.9999999999998" y="100" as="targetPoint" />
          </mxGeometry>
        </mxCell>
        <mxCell id="o0mA_l74HgghlNNjV9-p-43" value="Acender luz vermelha" style="rounded=1;whiteSpace=wrap;html=1;fillColor=#f8cecc;strokeColor=#b85450;" parent="o0mA_l74HgghlNNjV9-p-2" vertex="1">
          <mxGeometry x="140" y="70" width="120" height="60" as="geometry" />
        </mxCell>
        <mxCell id="o0mA_l74HgghlNNjV9-p-41" value="" style="edgeStyle=orthogonalEdgeStyle;rounded=0;orthogonalLoop=1;jettySize=auto;html=1;" parent="o0mA_l74HgghlNNjV9-p-2" source="o0mA_l74HgghlNNjV9-p-42" target="o0mA_l74HgghlNNjV9-p-43" edge="1">
          <mxGeometry relative="1" as="geometry" />
        </mxCell>
        <mxCell id="o0mA_l74HgghlNNjV9-p-59" value="" style="edgeStyle=orthogonalEdgeStyle;rounded=0;orthogonalLoop=1;jettySize=auto;html=1;entryX=0;entryY=0.5;entryDx=0;entryDy=0;" parent="o0mA_l74HgghlNNjV9-p-2" source="o0mA_l74HgghlNNjV9-p-44" target="o0mA_l74HgghlNNjV9-p-55" edge="1">
          <mxGeometry relative="1" as="geometry" />
        </mxCell>
        <mxCell id="o0mA_l74HgghlNNjV9-p-44" value="Acender luz verde" style="whiteSpace=wrap;html=1;rounded=1;fillColor=#d5e8d4;strokeColor=#82b366;" parent="o0mA_l74HgghlNNjV9-p-2" vertex="1">
          <mxGeometry x="622" y="70" width="120" height="60" as="geometry" />
        </mxCell>
        <mxCell id="o0mA_l74HgghlNNjV9-p-61" value="" style="edgeStyle=orthogonalEdgeStyle;rounded=0;orthogonalLoop=1;jettySize=auto;html=1;" parent="o0mA_l74HgghlNNjV9-p-2" source="o0mA_l74HgghlNNjV9-p-55" target="o0mA_l74HgghlNNjV9-p-60" edge="1">
          <mxGeometry relative="1" as="geometry" />
        </mxCell>
        <mxCell id="o0mA_l74HgghlNNjV9-p-55" value="" style="ellipse;whiteSpace=wrap;html=1;aspect=fixed;" parent="o0mA_l74HgghlNNjV9-p-2" vertex="1">
          <mxGeometry x="800" y="80" width="40" height="40" as="geometry" />
        </mxCell>
        <mxCell id="o0mA_l74HgghlNNjV9-p-56" value="Aguardar 1,5 segundos" style="text;html=1;strokeColor=none;fillColor=none;align=center;verticalAlign=middle;whiteSpace=wrap;rounded=0;" parent="o0mA_l74HgghlNNjV9-p-2" vertex="1">
          <mxGeometry x="780" y="130" width="90" height="30" as="geometry" />
        </mxCell>
        <mxCell id="o0mA_l74HgghlNNjV9-p-66" value="" style="edgeStyle=orthogonalEdgeStyle;rounded=0;orthogonalLoop=1;jettySize=auto;html=1;entryX=0;entryY=0.5;entryDx=0;entryDy=0;" parent="o0mA_l74HgghlNNjV9-p-2" source="o0mA_l74HgghlNNjV9-p-60" target="o0mA_l74HgghlNNjV9-p-64" edge="1">
          <mxGeometry relative="1" as="geometry" />
        </mxCell>
        <mxCell id="o0mA_l74HgghlNNjV9-p-60" value="Acender luz amarela" style="rounded=1;whiteSpace=wrap;html=1;fillColor=#fff2cc;strokeColor=#d6b656;" parent="o0mA_l74HgghlNNjV9-p-2" vertex="1">
          <mxGeometry x="895" y="70" width="120" height="60" as="geometry" />
        </mxCell>
        <mxCell id="o0mA_l74HgghlNNjV9-p-64" value="" style="ellipse;whiteSpace=wrap;html=1;aspect=fixed;" parent="o0mA_l74HgghlNNjV9-p-2" vertex="1">
          <mxGeometry x="1085" y="80" width="40" height="40" as="geometry" />
        </mxCell>
        <mxCell id="o0mA_l74HgghlNNjV9-p-65" value="Aguardar 1,5 segundos" style="text;html=1;strokeColor=none;fillColor=none;align=center;verticalAlign=middle;whiteSpace=wrap;rounded=0;" parent="o0mA_l74HgghlNNjV9-p-2" vertex="1">
          <mxGeometry x="1060" y="130" width="90" height="30" as="geometry" />
        </mxCell>
        <mxCell id="o0mA_l74HgghlNNjV9-p-72" value="" style="endArrow=classic;html=1;rounded=0;exitX=0.5;exitY=0;exitDx=0;exitDy=0;entryX=0.5;entryY=0;entryDx=0;entryDy=0;" parent="o0mA_l74HgghlNNjV9-p-2" source="o0mA_l74HgghlNNjV9-p-64" target="o0mA_l74HgghlNNjV9-p-43" edge="1">
          <mxGeometry width="50" height="50" relative="1" as="geometry">
            <mxPoint x="1100" y="80" as="sourcePoint" />
            <mxPoint x="270" y="30" as="targetPoint" />
            <Array as="points">
              <mxPoint x="1105" y="40" />
              <mxPoint x="200" y="40" />
            </Array>
          </mxGeometry>
        </mxCell>
        <mxCell id="o0mA_l74HgghlNNjV9-p-23" value="Semáforo 3" style="swimlane;horizontal=0;whiteSpace=wrap;html=1;" parent="1" vertex="1">
          <mxGeometry x="120" y="460" width="1320" height="200" as="geometry">
            <mxRectangle x="120" y="60" width="40" height="150" as="alternateBounds" />
          </mxGeometry>
        </mxCell>
        <mxCell id="o0mA_l74HgghlNNjV9-p-24" value="" style="edgeStyle=orthogonalEdgeStyle;rounded=0;orthogonalLoop=1;jettySize=auto;html=1;" parent="o0mA_l74HgghlNNjV9-p-23" source="o0mA_l74HgghlNNjV9-p-25" target="o0mA_l74HgghlNNjV9-p-27" edge="1">
          <mxGeometry relative="1" as="geometry" />
        </mxCell>
        <mxCell id="o0mA_l74HgghlNNjV9-p-25" value="iniciar" style="ellipse;whiteSpace=wrap;html=1;aspect=fixed;" parent="o0mA_l74HgghlNNjV9-p-23" vertex="1">
          <mxGeometry x="60" y="80" width="40" height="40" as="geometry" />
        </mxCell>
        <mxCell id="o0mA_l74HgghlNNjV9-p-26" value="" style="edgeStyle=orthogonalEdgeStyle;rounded=0;orthogonalLoop=1;jettySize=auto;html=1;" parent="o0mA_l74HgghlNNjV9-p-23" source="o0mA_l74HgghlNNjV9-p-27" target="o0mA_l74HgghlNNjV9-p-29" edge="1">
          <mxGeometry relative="1" as="geometry" />
        </mxCell>
        <mxCell id="o0mA_l74HgghlNNjV9-p-27" value="Acender luz verde" style="rounded=1;whiteSpace=wrap;html=1;fillColor=#d5e8d4;strokeColor=#82b366;" parent="o0mA_l74HgghlNNjV9-p-23" vertex="1">
          <mxGeometry x="140" y="70" width="120" height="60" as="geometry" />
        </mxCell>
        <mxCell id="o0mA_l74HgghlNNjV9-p-28" value="" style="edgeStyle=orthogonalEdgeStyle;rounded=0;orthogonalLoop=1;jettySize=auto;html=1;" parent="o0mA_l74HgghlNNjV9-p-23" source="o0mA_l74HgghlNNjV9-p-29" target="o0mA_l74HgghlNNjV9-p-32" edge="1">
          <mxGeometry relative="1" as="geometry" />
        </mxCell>
        <mxCell id="o0mA_l74HgghlNNjV9-p-29" value="" style="ellipse;whiteSpace=wrap;html=1;aspect=fixed;" parent="o0mA_l74HgghlNNjV9-p-23" vertex="1">
          <mxGeometry x="300" y="80" width="40" height="40" as="geometry" />
        </mxCell>
        <mxCell id="o0mA_l74HgghlNNjV9-p-30" value="Aguardar 1,5 segundos" style="text;html=1;strokeColor=none;fillColor=none;align=center;verticalAlign=middle;whiteSpace=wrap;rounded=0;" parent="o0mA_l74HgghlNNjV9-p-23" vertex="1">
          <mxGeometry x="275" y="130" width="90" height="30" as="geometry" />
        </mxCell>
        <mxCell id="o0mA_l74HgghlNNjV9-p-31" value="" style="edgeStyle=orthogonalEdgeStyle;rounded=0;orthogonalLoop=1;jettySize=auto;html=1;entryX=0;entryY=0.5;entryDx=0;entryDy=0;" parent="o0mA_l74HgghlNNjV9-p-23" source="o0mA_l74HgghlNNjV9-p-32" target="o0mA_l74HgghlNNjV9-p-34" edge="1">
          <mxGeometry relative="1" as="geometry" />
        </mxCell>
        <mxCell id="o0mA_l74HgghlNNjV9-p-32" value="Acender luz amarela" style="rounded=1;whiteSpace=wrap;html=1;fillColor=#fff2cc;strokeColor=#d6b656;" parent="o0mA_l74HgghlNNjV9-p-23" vertex="1">
          <mxGeometry x="380" y="70" width="120" height="60" as="geometry" />
        </mxCell>
        <mxCell id="o0mA_l74HgghlNNjV9-p-33" value="" style="edgeStyle=orthogonalEdgeStyle;rounded=0;orthogonalLoop=1;jettySize=auto;html=1;" parent="o0mA_l74HgghlNNjV9-p-23" source="o0mA_l74HgghlNNjV9-p-34" target="o0mA_l74HgghlNNjV9-p-37" edge="1">
          <mxGeometry relative="1" as="geometry" />
        </mxCell>
        <mxCell id="o0mA_l74HgghlNNjV9-p-34" value="" style="ellipse;whiteSpace=wrap;html=1;aspect=fixed;" parent="o0mA_l74HgghlNNjV9-p-23" vertex="1">
          <mxGeometry x="540" y="80" width="40" height="40" as="geometry" />
        </mxCell>
        <mxCell id="o0mA_l74HgghlNNjV9-p-35" value="Aguardar 1,5 segundos" style="text;html=1;strokeColor=none;fillColor=none;align=center;verticalAlign=middle;whiteSpace=wrap;rounded=0;" parent="o0mA_l74HgghlNNjV9-p-23" vertex="1">
          <mxGeometry x="515" y="130" width="90" height="30" as="geometry" />
        </mxCell>
        <mxCell id="o0mA_l74HgghlNNjV9-p-36" value="" style="edgeStyle=orthogonalEdgeStyle;rounded=0;orthogonalLoop=1;jettySize=auto;html=1;entryX=0;entryY=0.5;entryDx=0;entryDy=0;" parent="o0mA_l74HgghlNNjV9-p-23" source="o0mA_l74HgghlNNjV9-p-37" target="o0mA_l74HgghlNNjV9-p-38" edge="1">
          <mxGeometry relative="1" as="geometry" />
        </mxCell>
        <mxCell id="o0mA_l74HgghlNNjV9-p-37" value="Acender luz vermelha" style="rounded=1;whiteSpace=wrap;html=1;fillColor=#f8cecc;strokeColor=#b85450;" parent="o0mA_l74HgghlNNjV9-p-23" vertex="1">
          <mxGeometry x="622" y="70" width="120" height="60" as="geometry" />
        </mxCell>
        <mxCell id="o0mA_l74HgghlNNjV9-p-38" value="" style="ellipse;whiteSpace=wrap;html=1;aspect=fixed;" parent="o0mA_l74HgghlNNjV9-p-23" vertex="1">
          <mxGeometry x="940" y="80" width="40" height="40" as="geometry" />
        </mxCell>
        <mxCell id="o0mA_l74HgghlNNjV9-p-39" value="Aguardar 3 segundos" style="text;html=1;strokeColor=none;fillColor=none;align=center;verticalAlign=middle;whiteSpace=wrap;rounded=0;" parent="o0mA_l74HgghlNNjV9-p-23" vertex="1">
          <mxGeometry x="915" y="130" width="90" height="30" as="geometry" />
        </mxCell>
        <mxCell id="o0mA_l74HgghlNNjV9-p-68" value="" style="endArrow=classic;html=1;rounded=0;exitX=1;exitY=0.5;exitDx=0;exitDy=0;entryX=0.5;entryY=1;entryDx=0;entryDy=0;" parent="o0mA_l74HgghlNNjV9-p-23" target="o0mA_l74HgghlNNjV9-p-27" edge="1">
          <mxGeometry width="50" height="50" relative="1" as="geometry">
            <mxPoint x="980" y="99.17000000000007" as="sourcePoint" />
            <mxPoint x="1240" y="150" as="targetPoint" />
            <Array as="points">
              <mxPoint x="1120" y="99" />
              <mxPoint x="1120" y="180" />
              <mxPoint x="200" y="180" />
            </Array>
          </mxGeometry>
        </mxCell>
        <mxCell id="Vqlj5k4cRlmUUN7bnfZ7-5" value="Quando:&lt;br&gt;|" style="text;html=1;strokeColor=none;fillColor=none;align=center;verticalAlign=middle;whiteSpace=wrap;rounded=0;" vertex="1" parent="o0mA_l74HgghlNNjV9-p-23">
          <mxGeometry x="622" y="40" width="60" height="30" as="geometry" />
        </mxCell>
        <mxCell id="o0mA_l74HgghlNNjV9-p-71" value="" style="endArrow=classic;dashed=1;html=1;rounded=0;exitX=0.5;exitY=0;exitDx=0;exitDy=0;entryX=0.5;entryY=1;entryDx=0;entryDy=0;" parent="1" source="o0mA_l74HgghlNNjV9-p-37" edge="1" target="o0mA_l74HgghlNNjV9-p-44">
          <mxGeometry width="50" height="50" relative="1" as="geometry">
            <mxPoint x="748" y="440" as="sourcePoint" />
            <mxPoint x="798" y="390" as="targetPoint" />
          </mxGeometry>
        </mxCell>
        <mxCell id="o0mA_l74HgghlNNjV9-p-70" value="" style="endArrow=classic;dashed=1;html=1;rounded=0;exitX=0.5;exitY=1;exitDx=0;exitDy=0;entryX=0.5;entryY=0;entryDx=0;entryDy=0;" parent="1" source="o0mA_l74HgghlNNjV9-p-18" edge="1" target="o0mA_l74HgghlNNjV9-p-44">
          <mxGeometry width="50" height="50" relative="1" as="geometry">
            <mxPoint x="802" y="330" as="sourcePoint" />
            <mxPoint x="830" y="210" as="targetPoint" />
          </mxGeometry>
        </mxCell>
        <mxCell id="Vqlj5k4cRlmUUN7bnfZ7-7" value="" style="ellipse;whiteSpace=wrap;html=1;aspect=fixed;fillColor=#00CC00;strokeColor=#82b366;" vertex="1" parent="1">
          <mxGeometry x="1560" y="45" width="50" height="50" as="geometry" />
        </mxCell>
        <mxCell id="Vqlj5k4cRlmUUN7bnfZ7-8" value="" style="ellipse;whiteSpace=wrap;html=1;aspect=fixed;fillColor=#fff2cc;strokeColor=#d6b656;" vertex="1" parent="1">
          <mxGeometry x="1560" y="105" width="50" height="50" as="geometry" />
        </mxCell>
        <mxCell id="Vqlj5k4cRlmUUN7bnfZ7-9" value="" style="ellipse;whiteSpace=wrap;html=1;aspect=fixed;fillColor=#f8cecc;strokeColor=#b85450;" vertex="1" parent="1">
          <mxGeometry x="1560" y="165" width="50" height="50" as="geometry" />
        </mxCell>
        <mxCell id="Vqlj5k4cRlmUUN7bnfZ7-10" value="" style="ellipse;whiteSpace=wrap;html=1;aspect=fixed;fillColor=#d5e8d4;strokeColor=#82b366;" vertex="1" parent="1">
          <mxGeometry x="1690" y="45" width="50" height="50" as="geometry" />
        </mxCell>
        <mxCell id="Vqlj5k4cRlmUUN7bnfZ7-11" value="" style="ellipse;whiteSpace=wrap;html=1;aspect=fixed;fillColor=#FFFF66;strokeColor=#d6b656;" vertex="1" parent="1">
          <mxGeometry x="1690" y="105" width="50" height="50" as="geometry" />
        </mxCell>
        <mxCell id="Vqlj5k4cRlmUUN7bnfZ7-12" value="" style="ellipse;whiteSpace=wrap;html=1;aspect=fixed;fillColor=#f8cecc;strokeColor=#b85450;" vertex="1" parent="1">
          <mxGeometry x="1690" y="165" width="50" height="50" as="geometry" />
        </mxCell>
        <mxCell id="Vqlj5k4cRlmUUN7bnfZ7-13" value="" style="ellipse;whiteSpace=wrap;html=1;aspect=fixed;fillColor=#d5e8d4;strokeColor=#82b366;" vertex="1" parent="1">
          <mxGeometry x="1820" y="45" width="50" height="50" as="geometry" />
        </mxCell>
        <mxCell id="Vqlj5k4cRlmUUN7bnfZ7-14" value="" style="ellipse;whiteSpace=wrap;html=1;aspect=fixed;fillColor=#fff2cc;strokeColor=#d6b656;" vertex="1" parent="1">
          <mxGeometry x="1820" y="105" width="50" height="50" as="geometry" />
        </mxCell>
        <mxCell id="Vqlj5k4cRlmUUN7bnfZ7-15" value="" style="ellipse;whiteSpace=wrap;html=1;aspect=fixed;fillColor=#FF3333;strokeColor=#b85450;" vertex="1" parent="1">
          <mxGeometry x="1820" y="165" width="50" height="50" as="geometry" />
        </mxCell>
        <mxCell id="Vqlj5k4cRlmUUN7bnfZ7-16" value="" style="endArrow=classic;html=1;rounded=0;" edge="1" parent="1">
          <mxGeometry width="50" height="50" relative="1" as="geometry">
            <mxPoint x="1630" y="129.5" as="sourcePoint" />
            <mxPoint x="1680" y="129.5" as="targetPoint" />
          </mxGeometry>
        </mxCell>
        <mxCell id="Vqlj5k4cRlmUUN7bnfZ7-17" value="" style="endArrow=classic;html=1;rounded=0;" edge="1" parent="1">
          <mxGeometry width="50" height="50" relative="1" as="geometry">
            <mxPoint x="1760" y="130" as="sourcePoint" />
            <mxPoint x="1810" y="130" as="targetPoint" />
          </mxGeometry>
        </mxCell>
        <mxCell id="Vqlj5k4cRlmUUN7bnfZ7-18" value="" style="endArrow=classic;html=1;rounded=0;" edge="1" parent="1">
          <mxGeometry width="50" height="50" relative="1" as="geometry">
            <mxPoint x="1890" y="130" as="sourcePoint" />
            <mxPoint x="1540" y="130" as="targetPoint" />
            <Array as="points">
              <mxPoint x="2040" y="130" />
              <mxPoint x="2040" y="10" />
              <mxPoint x="1500" y="10" />
              <mxPoint x="1500" y="130" />
            </Array>
          </mxGeometry>
        </mxCell>
        <mxCell id="Vqlj5k4cRlmUUN7bnfZ7-19" value="" style="ellipse;whiteSpace=wrap;html=1;aspect=fixed;fillColor=#00CC00;strokeColor=#82b366;" vertex="1" parent="1">
          <mxGeometry x="1560" y="575" width="50" height="50" as="geometry" />
        </mxCell>
        <mxCell id="Vqlj5k4cRlmUUN7bnfZ7-20" value="" style="ellipse;whiteSpace=wrap;html=1;aspect=fixed;fillColor=#fff2cc;strokeColor=#d6b656;" vertex="1" parent="1">
          <mxGeometry x="1560" y="635" width="50" height="50" as="geometry" />
        </mxCell>
        <mxCell id="Vqlj5k4cRlmUUN7bnfZ7-21" value="" style="ellipse;whiteSpace=wrap;html=1;aspect=fixed;fillColor=#f8cecc;strokeColor=#b85450;" vertex="1" parent="1">
          <mxGeometry x="1560" y="695" width="50" height="50" as="geometry" />
        </mxCell>
        <mxCell id="Vqlj5k4cRlmUUN7bnfZ7-22" value="" style="ellipse;whiteSpace=wrap;html=1;aspect=fixed;fillColor=#d5e8d4;strokeColor=#82b366;" vertex="1" parent="1">
          <mxGeometry x="1690" y="575" width="50" height="50" as="geometry" />
        </mxCell>
        <mxCell id="Vqlj5k4cRlmUUN7bnfZ7-23" value="" style="ellipse;whiteSpace=wrap;html=1;aspect=fixed;fillColor=#FFFF66;strokeColor=#d6b656;" vertex="1" parent="1">
          <mxGeometry x="1690" y="635" width="50" height="50" as="geometry" />
        </mxCell>
        <mxCell id="Vqlj5k4cRlmUUN7bnfZ7-24" value="" style="ellipse;whiteSpace=wrap;html=1;aspect=fixed;fillColor=#f8cecc;strokeColor=#b85450;" vertex="1" parent="1">
          <mxGeometry x="1690" y="695" width="50" height="50" as="geometry" />
        </mxCell>
        <mxCell id="Vqlj5k4cRlmUUN7bnfZ7-25" value="" style="ellipse;whiteSpace=wrap;html=1;aspect=fixed;fillColor=#d5e8d4;strokeColor=#82b366;" vertex="1" parent="1">
          <mxGeometry x="1820" y="575" width="50" height="50" as="geometry" />
        </mxCell>
        <mxCell id="Vqlj5k4cRlmUUN7bnfZ7-26" value="" style="ellipse;whiteSpace=wrap;html=1;aspect=fixed;fillColor=#fff2cc;strokeColor=#d6b656;" vertex="1" parent="1">
          <mxGeometry x="1820" y="635" width="50" height="50" as="geometry" />
        </mxCell>
        <mxCell id="Vqlj5k4cRlmUUN7bnfZ7-27" value="" style="ellipse;whiteSpace=wrap;html=1;aspect=fixed;fillColor=#FF3333;strokeColor=#b85450;" vertex="1" parent="1">
          <mxGeometry x="1820" y="695" width="50" height="50" as="geometry" />
        </mxCell>
        <mxCell id="Vqlj5k4cRlmUUN7bnfZ7-28" value="" style="endArrow=classic;html=1;rounded=0;" edge="1" parent="1">
          <mxGeometry width="50" height="50" relative="1" as="geometry">
            <mxPoint x="1630" y="659.5" as="sourcePoint" />
            <mxPoint x="1680" y="659.5" as="targetPoint" />
          </mxGeometry>
        </mxCell>
        <mxCell id="Vqlj5k4cRlmUUN7bnfZ7-29" value="" style="endArrow=classic;html=1;rounded=0;" edge="1" parent="1">
          <mxGeometry width="50" height="50" relative="1" as="geometry">
            <mxPoint x="1760" y="660" as="sourcePoint" />
            <mxPoint x="1810" y="660" as="targetPoint" />
          </mxGeometry>
        </mxCell>
        <mxCell id="Vqlj5k4cRlmUUN7bnfZ7-30" value="" style="endArrow=classic;html=1;rounded=0;" edge="1" parent="1">
          <mxGeometry width="50" height="50" relative="1" as="geometry">
            <mxPoint x="1890" y="660" as="sourcePoint" />
            <mxPoint x="1540" y="660" as="targetPoint" />
            <Array as="points">
              <mxPoint x="2040" y="660" />
              <mxPoint x="2040" y="540" />
              <mxPoint x="1500" y="540" />
              <mxPoint x="1500" y="660" />
            </Array>
          </mxGeometry>
        </mxCell>
        <mxCell id="Vqlj5k4cRlmUUN7bnfZ7-31" value="" style="ellipse;whiteSpace=wrap;html=1;aspect=fixed;fillColor=#d5e8d4;strokeColor=#82b366;" vertex="1" parent="1">
          <mxGeometry x="1560" y="305" width="50" height="50" as="geometry" />
        </mxCell>
        <mxCell id="Vqlj5k4cRlmUUN7bnfZ7-32" value="" style="ellipse;whiteSpace=wrap;html=1;aspect=fixed;fillColor=#fff2cc;strokeColor=#d6b656;" vertex="1" parent="1">
          <mxGeometry x="1560" y="365" width="50" height="50" as="geometry" />
        </mxCell>
        <mxCell id="Vqlj5k4cRlmUUN7bnfZ7-33" value="" style="ellipse;whiteSpace=wrap;html=1;aspect=fixed;fillColor=#FF3333;strokeColor=#b85450;" vertex="1" parent="1">
          <mxGeometry x="1560" y="425" width="50" height="50" as="geometry" />
        </mxCell>
        <mxCell id="Vqlj5k4cRlmUUN7bnfZ7-34" value="" style="ellipse;whiteSpace=wrap;html=1;aspect=fixed;fillColor=#00cc00;strokeColor=#82b366;" vertex="1" parent="1">
          <mxGeometry x="1820" y="305" width="50" height="50" as="geometry" />
        </mxCell>
        <mxCell id="Vqlj5k4cRlmUUN7bnfZ7-35" value="" style="ellipse;whiteSpace=wrap;html=1;aspect=fixed;fillColor=#fff2cc;strokeColor=#d6b656;" vertex="1" parent="1">
          <mxGeometry x="1820" y="365" width="50" height="50" as="geometry" />
        </mxCell>
        <mxCell id="Vqlj5k4cRlmUUN7bnfZ7-36" value="" style="ellipse;whiteSpace=wrap;html=1;aspect=fixed;fillColor=#f8cecc;strokeColor=#b85450;" vertex="1" parent="1">
          <mxGeometry x="1820" y="425" width="50" height="50" as="geometry" />
        </mxCell>
        <mxCell id="Vqlj5k4cRlmUUN7bnfZ7-37" value="" style="ellipse;whiteSpace=wrap;html=1;aspect=fixed;fillColor=#d5e8d4;strokeColor=#82b366;" vertex="1" parent="1">
          <mxGeometry x="1950" y="305" width="50" height="50" as="geometry" />
        </mxCell>
        <mxCell id="Vqlj5k4cRlmUUN7bnfZ7-38" value="" style="ellipse;whiteSpace=wrap;html=1;aspect=fixed;fillColor=#FFFF33;strokeColor=#d6b656;" vertex="1" parent="1">
          <mxGeometry x="1950" y="365" width="50" height="50" as="geometry" />
        </mxCell>
        <mxCell id="Vqlj5k4cRlmUUN7bnfZ7-39" value="" style="ellipse;whiteSpace=wrap;html=1;aspect=fixed;fillColor=#f8cecc;strokeColor=#b85450;" vertex="1" parent="1">
          <mxGeometry x="1950" y="425" width="50" height="50" as="geometry" />
        </mxCell>
        <mxCell id="Vqlj5k4cRlmUUN7bnfZ7-40" value="" style="endArrow=classic;html=1;rounded=0;" edge="1" parent="1">
          <mxGeometry width="50" height="50" relative="1" as="geometry">
            <mxPoint x="1630" y="389.5" as="sourcePoint" />
            <mxPoint x="1800" y="390" as="targetPoint" />
          </mxGeometry>
        </mxCell>
        <mxCell id="Vqlj5k4cRlmUUN7bnfZ7-41" value="" style="endArrow=classic;html=1;rounded=0;" edge="1" parent="1">
          <mxGeometry width="50" height="50" relative="1" as="geometry">
            <mxPoint x="1890" y="390" as="sourcePoint" />
            <mxPoint x="1940" y="390" as="targetPoint" />
          </mxGeometry>
        </mxCell>
        <mxCell id="Vqlj5k4cRlmUUN7bnfZ7-42" value="" style="endArrow=classic;html=1;rounded=0;" edge="1" parent="1">
          <mxGeometry width="50" height="50" relative="1" as="geometry">
            <mxPoint x="2020" y="390" as="sourcePoint" />
            <mxPoint x="1540" y="390" as="targetPoint" />
            <Array as="points">
              <mxPoint x="2040" y="390" />
              <mxPoint x="2040" y="270" />
              <mxPoint x="1910" y="270" />
              <mxPoint x="1500" y="270" />
              <mxPoint x="1500" y="390" />
            </Array>
          </mxGeometry>
        </mxCell>
        <mxCell id="Vqlj5k4cRlmUUN7bnfZ7-43" value="(3 segundos)" style="text;html=1;strokeColor=none;fillColor=none;align=center;verticalAlign=middle;whiteSpace=wrap;rounded=0;" vertex="1" parent="1">
          <mxGeometry x="1920" y="625" width="90" height="30" as="geometry" />
        </mxCell>
        <mxCell id="Vqlj5k4cRlmUUN7bnfZ7-44" value="(3 segundos)" style="text;html=1;strokeColor=none;fillColor=none;align=center;verticalAlign=middle;whiteSpace=wrap;rounded=0;" vertex="1" parent="1">
          <mxGeometry x="1920" y="95" width="90" height="30" as="geometry" />
        </mxCell>
      </root>
    </mxGraphModel>
  </diagram>
</mxfile>
